<svg version="1.1" xmlns="http://www.w3.org/2000/svg" xmlns:xlink="http://www.w3.org/1999/xlink" width="102.30073" height="120.63464" viewBox="0,0,102.30073,120.63464"><defs><linearGradient x1="240" y1="127.68268" x2="240" y2="229.85252" gradientUnits="userSpaceOnUse" id="color-1"><stop offset="0" stop-color="#14e099"/><stop offset="1" stop-color="#00dd8b"/></linearGradient><linearGradient x1="240.43079" y1="228.74589" x2="240.43079" y2="240.31732" gradientUnits="userSpaceOnUse" id="color-2"><stop offset="0" stop-color="#00de8c"/><stop offset="1" stop-color="#00ce83"/></linearGradient><linearGradient x1="240" y1="119.68268" x2="240" y2="221.85252" gradientUnits="userSpaceOnUse" id="color-3"><stop offset="0" stop-color="#17ffae"/><stop offset="1" stop-color="#00f59b"/></linearGradient><linearGradient x1="240.43079" y1="220.74589" x2="240.43079" y2="232.31732" gradientUnits="userSpaceOnUse" id="color-4"><stop offset="0" stop-color="#00f39b"/><stop offset="1" stop-color="#00ed96"/></linearGradient></defs><g transform="translate(-188.84963,-119.68268)"><g data-paper-data="{&quot;isPaintingLayer&quot;:true}" fill-rule="nonzero" stroke-linecap="butt" stroke-linejoin="miter" stroke-miterlimit="10" stroke-dasharray="" stroke-dashoffset="0" style="mix-blend-mode: normal"><path d="M191.99466,226.93268c-4.1451,-3.9441 -3,-11.2002 -3,-11.2002v-88.0498h26.17815c-0.02778,0.23227 10.19365,9.2039 10.19365,9.2039c0,0 1.41023,1.57702 2.6586,2.0549c1.24837,0.47788 3.34536,0.24342 3.34536,0.24342c0,0 14.3756,-0.01369 16.99792,0.03844c1.36326,0.0271 1.75884,0.38555 2.80139,0.05569c1.15556,-0.36561 2.6774,-1.99943 2.6774,-1.99943c0,0 10.99048,-9.42045 10.96937,-9.59692h26.17815v87.04981c0,0 1.14018,7.35187 -2.75,11.7002c-3.89018,4.34833 -10.625,3.25 -10.625,3.25h-73.96387c0,0 -7.51603,1.1941 -11.66114,-2.75z" fill="url(#color-1)" stroke="none" stroke-width="0"/><path d="M228.38318,240.31732l-12.14286,-11.57143l48.38096,0.20635l-12.38096,11.36508z" fill="url(#color-2)" stroke="#000000" stroke-width="0"/><path d="M191.99466,218.93268c-4.1451,-3.9441 -3,-11.2002 -3,-11.2002v-88.0498h26.17815c-0.02778,0.23227 10.19365,9.2039 10.19365,9.2039c0,0 1.41023,1.57702 2.6586,2.0549c1.24837,0.47788 3.34536,0.24342 3.34536,0.24342c0,0 14.3756,-0.01369 16.99792,0.03844c1.36326,0.0271 1.75884,0.38555 2.80139,0.05569c1.15556,-0.36561 2.6774,-1.99943 2.6774,-1.99943c0,0 10.99048,-9.42045 10.96937,-9.59692h26.17815v87.04981c0,0 1.14018,7.35187 -2.75,11.7002c-3.89018,4.34833 -10.625,3.25 -10.625,3.25h-73.96387c0,0 -7.51603,1.1941 -11.66114,-2.75z" fill="url(#color-3)" stroke="none" stroke-width="0"/><path d="M228.38318,232.31732l-12.14286,-11.57143l48.38096,0.20635l-12.38096,11.36508z" fill="url(#color-4)" stroke="#000000" stroke-width="0"/><path d="M240.13998,177.76839c-1.03275,0.12766 -2.091,0.16515 -3.16622,0.10481c-9.77837,-0.54878 -17.25698,-8.98204 -16.70394,-18.83621c0.55304,-9.85417 8.9283,-17.39768 18.70667,-16.84889c8.4005,0.47145 15.10369,6.76193 16.47534,14.77328" fill="none" stroke="#ffffff" stroke-width="6"/><path d="M237.21079,177.89364c1.03275,-0.12766 2.091,-0.16515 3.16622,-0.10481c9.77837,0.54878 17.25698,8.98204 16.70394,18.83621c-0.55304,9.85417 -8.9283,17.39768 -18.70667,16.84889c-8.4005,-0.47145 -15.10369,-6.76193 -16.47534,-14.77328" data-paper-data="{&quot;index&quot;:null}" fill="none" stroke="#ffffff" stroke-width="6"/></g></g></svg>