<svg version="1.1" xmlns="http://www.w3.org/2000/svg" xmlns:xlink="http://www.w3.org/1999/xlink" width="102.30073" height="120.80198" viewBox="0,0,102.30073,120.80198"><defs><linearGradient x1="240.00001" y1="127.68268" x2="240.00001" y2="229.85252" gradientUnits="userSpaceOnUse" id="color-1"><stop offset="0" stop-color="#14e099"/><stop offset="1" stop-color="#00dd8b"/></linearGradient><linearGradient x1="240.4308" y1="228.74589" x2="240.4308" y2="240.31732" gradientUnits="userSpaceOnUse" id="color-2"><stop offset="0" stop-color="#00de8c"/><stop offset="1" stop-color="#00ce83"/></linearGradient><linearGradient x1="240.00001" y1="119.68268" x2="240.00001" y2="221.85252" gradientUnits="userSpaceOnUse" id="color-3"><stop offset="0" stop-color="#17ffae"/><stop offset="1" stop-color="#00f59b"/></linearGradient><linearGradient x1="240.4308" y1="220.74589" x2="240.4308" y2="232.31732" gradientUnits="userSpaceOnUse" id="color-4"><stop offset="0" stop-color="#00f39b"/><stop offset="1" stop-color="#00ed96"/></linearGradient><linearGradient x1="213.36364" y1="221.68875" x2="213.36364" y2="235.91994" gradientUnits="userSpaceOnUse" id="color-5"><stop offset="0" stop-color="#000000"/><stop offset="1" stop-color="#012719"/></linearGradient><linearGradient x1="241.42325" y1="232.42927" x2="241.42325" y2="240.48466" gradientUnits="userSpaceOnUse" id="color-6"><stop offset="0" stop-color="#000000"/><stop offset="1" stop-color="#012719"/></linearGradient></defs><g transform="translate(-188.84964,-119.68268)"><g data-paper-data="{&quot;isPaintingLayer&quot;:true}" fill-rule="nonzero" stroke-width="0" stroke-linejoin="miter" stroke-miterlimit="10" stroke-dasharray="" stroke-dashoffset="0" style="mix-blend-mode: normal"><path d="M191.99467,226.93268c-4.1451,-3.9441 -3,-11.2002 -3,-11.2002v-88.0498h26.17815c-0.02778,0.23227 10.19365,9.2039 10.19365,9.2039c0,0 1.41023,1.57702 2.6586,2.0549c1.24837,0.47788 3.34536,0.24342 3.34536,0.24342c0,0 14.3756,-0.01369 16.99792,0.03844c1.36326,0.0271 1.75884,0.38555 2.80139,0.05569c1.15556,-0.36561 2.6774,-1.99943 2.6774,-1.99943c0,0 10.99048,-9.42045 10.96937,-9.59692h26.17815v87.04981c0,0 1.14018,7.35187 -2.75,11.7002c-3.89018,4.34833 -10.625,3.25 -10.625,3.25h-73.96387c0,0 -7.51603,1.1941 -11.66114,-2.75z" fill="url(#color-1)" stroke="none" stroke-linecap="butt"/><path d="M228.38319,240.31732l-12.14286,-11.57143l48.38096,0.20635l-12.38096,11.36508z" fill="url(#color-2)" stroke="#000000" stroke-linecap="butt"/><path d="M191.99467,218.93268c-4.1451,-3.9441 -3,-11.2002 -3,-11.2002v-88.0498h26.17815c-0.02778,0.23227 10.19365,9.2039 10.19365,9.2039c0,0 1.41023,1.57702 2.6586,2.0549c1.24837,0.47788 3.34536,0.24342 3.34536,0.24342c0,0 14.3756,-0.01369 16.99792,0.03844c1.36326,0.0271 1.75884,0.38555 2.80139,0.05569c1.15556,-0.36561 2.6774,-1.99943 2.6774,-1.99943c0,0 10.99048,-9.42045 10.96937,-9.59692h26.17815v87.04981c0,0 1.14018,7.35187 -2.75,11.7002c-3.89018,4.34833 -10.625,3.25 -10.625,3.25h-73.96387c0,0 -7.51603,1.1941 -11.66114,-2.75z" fill="url(#color-3)" stroke="none" stroke-linecap="butt"/><path d="M228.38319,232.31732l-12.14286,-11.57143l48.38096,0.20635l-12.38096,11.36508z" fill="url(#color-4)" stroke="#000000" stroke-linecap="butt"/><path d="M263.0057,222.25222l-11.25377,10.43738l-21.32151,-0.36308l60.27437,-42.46697v16.5078l-22.22472,15.48117z" fill="#012719" stroke="#ffffff" stroke-linecap="butt"/><path d="M290.67452,177.31836l-66.85973,51.01746l-6.44431,-6.71283h-15.03673l88.34077,-64.1746z" fill="#012719" stroke="#000000" stroke-linecap="round"/><path d="M202.48886,229.47563v-8.05539h15.03673l6.6386,7.18671l0.07423,7.313l-6.71283,-6.44431z" fill="url(#color-5)" stroke="none" stroke-linecap="butt"/><path d="M230.41422,240.48466v-8.05539l21.74955,-0.53702l10.72472,-9.99816l5.78717,-0.21049l-5.50286,8.06054l-10.74052,10.74052z" fill="url(#color-6)" stroke="none" stroke-linecap="butt"/></g></g></svg>